<?xml version="1.0" standalone="no"?>
<!DOCTYPE svg PUBLIC "-//W3C//DTD SVG 20010904//EN"
 "http://www.w3.org/TR/2001/REC-SVG-20010904/DTD/svg10.dtd">
<svg version="1.0" xmlns="http://www.w3.org/2000/svg"
 width="30.000000pt" height="30.000000pt" viewBox="0 0 30.000000 30.000000"
 preserveAspectRatio="xMidYMid meet">

<g transform="translate(0.000000,30.000000) scale(0.100000,-0.100000)"
fill="#000000" stroke="none">
<path d="M40 230 c-32 -30 -32 -31 -15 -50 13 -15 21 -17 31 -9 10 9 14 -3 16
-58 l3 -68 75 0 75 0 3 68 c2 55 6 67 16 58 10 -8 18 -6 31 9 17 19 17 20 -15
50 -30 28 -37 30 -110 30 -73 0 -80 -2 -110 -30z m135 0 c-3 -5 -15 -10 -25
-10 -10 0 -22 5 -25 10 -4 6 7 10 25 10 18 0 29 -4 25 -10z"/>
</g>
</svg>
