<?xml version="1.0" standalone="no"?>
<!DOCTYPE svg PUBLIC "-//W3C//DTD SVG 20010904//EN"
 "http://www.w3.org/TR/2001/REC-SVG-20010904/DTD/svg10.dtd">
<svg version="1.0" xmlns="http://www.w3.org/2000/svg"
 width="24.000000pt" height="24.000000pt" viewBox="0 0 24.000000 24.000000"
 preserveAspectRatio="xMidYMid meet">

<g transform="translate(0.000000,24.000000) scale(0.100000,-0.100000)"
fill="#000000" stroke="none">
<path d="M30 206 c0 -3 14 -25 30 -49 21 -32 30 -57 30 -86 0 -39 2 -41 30
-41 28 0 30 2 30 41 0 29 9 54 30 86 17 24 30 46 30 49 0 2 -40 4 -90 4 -50 0
-90 -2 -90 -4z m140 -21 c0 -2 -9 -19 -20 -37 -11 -18 -20 -48 -20 -65 0 -18
-4 -33 -10 -33 -5 0 -10 15 -10 33 0 17 -9 47 -20 65 -11 18 -20 35 -20 37 0
3 23 5 50 5 28 0 50 -2 50 -5z"/>
</g>
</svg>
